<svg width="200" height="249" viewBox="0 0 200 249" fill="none" xmlns="http://www.w3.org/2000/svg">
<path d="M0 46L40 0H200V249H0L0 46Z" fill="#1E1E1E"/>
<path d="M70.1679 102.957C70.313 103.102 70.4282 103.274 70.5068 103.464C70.5853 103.654 70.6258 103.857 70.6258 104.062C70.6258 104.268 70.5853 104.471 70.5068 104.661C70.4282 104.85 70.313 105.023 70.1679 105.168C70.0227 105.313 69.8503 105.428 69.6607 105.507C69.471 105.585 69.2677 105.626 69.0624 105.626C68.8571 105.626 68.6538 105.585 68.4641 105.507C68.2744 105.428 68.1021 105.313 67.9569 105.168L54.9999 92.2089L42.0429 105.168C41.7497 105.461 41.352 105.626 40.9374 105.626C40.5228 105.626 40.1251 105.461 39.8319 105.168C39.5387 104.875 39.374 104.477 39.374 104.062C39.374 103.648 39.5387 103.25 39.8319 102.957L52.7909 89.9999L39.8319 77.0429C39.5387 76.7497 39.374 76.352 39.374 75.9374C39.374 75.5228 39.5387 75.1251 39.8319 74.8319C40.1251 74.5387 40.5228 74.374 40.9374 74.374C41.352 74.374 41.7497 74.5387 42.0429 74.8319L54.9999 87.7909L67.9569 74.8319C68.2501 74.5387 68.6478 74.374 69.0624 74.374C69.477 74.374 69.8747 74.5387 70.1679 74.8319C70.4611 75.1251 70.6258 75.5228 70.6258 75.9374C70.6258 76.352 70.4611 76.7497 70.1679 77.0429L57.2089 89.9999L70.1679 102.957Z" fill="white"/>
<path d="M160.168 102.957C160.313 103.102 160.428 103.274 160.507 103.464C160.585 103.654 160.626 103.857 160.626 104.062C160.626 104.268 160.585 104.471 160.507 104.661C160.428 104.85 160.313 105.023 160.168 105.168C160.023 105.313 159.85 105.428 159.661 105.507C159.471 105.585 159.268 105.626 159.062 105.626C158.857 105.626 158.654 105.585 158.464 105.507C158.274 105.428 158.102 105.313 157.957 105.168L145 92.2089L132.043 105.168C131.75 105.461 131.352 105.626 130.937 105.626C130.523 105.626 130.125 105.461 129.832 105.168C129.539 104.875 129.374 104.477 129.374 104.062C129.374 103.648 129.539 103.25 129.832 102.957L142.791 89.9999L129.832 77.0429C129.539 76.7497 129.374 76.352 129.374 75.9374C129.374 75.5228 129.539 75.1251 129.832 74.8319C130.125 74.5387 130.523 74.374 130.937 74.374C131.352 74.374 131.75 74.5387 132.043 74.8319L145 87.7909L157.957 74.8319C158.25 74.5387 158.648 74.374 159.062 74.374C159.477 74.374 159.875 74.5387 160.168 74.8319C160.461 75.1251 160.626 75.5228 160.626 75.9374C160.626 76.352 160.461 76.7497 160.168 77.0429L147.209 89.9999L160.168 102.957Z" fill="white"/>
<rect x="32.5" y="155.5" width="136" height="7" fill="white" stroke="white"/>
<path d="M71.5 161.5V174C71.5 178.694 67.6944 182.5 63 182.5C58.3056 182.5 54.5 178.694 54.5 174V161.5H71.5Z" stroke="white" stroke-width="3"/>
</svg>
