<svg width="18" height="18" viewBox="0 0 18 18" fill="none" xmlns="http://www.w3.org/2000/svg">
<path d="M14.2501 3.74984C14.086 3.5858 13.8635 3.49365 13.6315 3.49365C13.3994 3.49365 13.1769 3.5858 13.0128 3.74984L9.00009 7.76259L4.98733 3.74984C4.82325 3.5858 4.60073 3.49365 4.36871 3.49365C4.13669 3.49365 3.91417 3.5858 3.75008 3.74984C3.58605 3.91393 3.4939 4.13645 3.4939 4.36847C3.4939 4.60048 3.58605 4.823 3.75008 4.98709L7.76284 8.99984L3.75008 13.0126C3.58605 13.1767 3.4939 13.3992 3.4939 13.6312C3.4939 13.8632 3.58605 14.0858 3.75008 14.2498C3.91417 14.4139 4.13669 14.506 4.36871 14.506C4.60073 14.506 4.82325 14.4139 4.98733 14.2498L9.00009 10.2371L13.0128 14.2498C13.1769 14.4139 13.3994 14.506 13.6315 14.506C13.8635 14.506 14.086 14.4139 14.2501 14.2498C14.4141 14.0858 14.5063 13.8632 14.5063 13.6312C14.5063 13.3992 14.4141 13.1767 14.2501 13.0126L10.2373 8.99984L14.2501 4.98709C14.4141 4.823 14.5063 4.60048 14.5063 4.36847C14.5063 4.13645 14.4141 3.91393 14.2501 3.74984Z" fill="white"/>
</svg>
