<svg width="60" height="60" viewBox="0 0 60 60" fill="none" xmlns="http://www.w3.org/2000/svg">
<path d="M15.3333 56.5333C13.3333 56.5333 11.6111 55.8556 10.1667 54.5C8.72222 53.1444 8 51.4667 8 49.4667V12.2667C8 10.5778 8.52222 9.06667 9.56667 7.73333C10.6111 6.4 11.9778 5.55556 13.6667 5.2L40 0V42.6667L14.7333 47.7333C14.3333 47.8222 14 48.0333 13.7333 48.3667C13.4667 48.7 13.3333 49.0667 13.3333 49.4667C13.3333 49.9556 13.5333 50.3667 13.9333 50.7C14.3333 51.0333 14.8 51.2 15.3333 51.2H45.3333V8.53333H50.6667V56.5333H15.3333ZM21.3333 41L34.6667 38.4V6.53333L21.3333 9.13333V41ZM16 42.0667V10.2L15 10.4C14.5111 10.4889 14.1111 10.7 13.8 11.0333C13.4889 11.3667 13.3333 11.7778 13.3333 12.2667V42.7333C13.5556 42.6444 13.7889 42.5667 14.0333 42.5C14.2778 42.4333 14.5111 42.3778 14.7333 42.3333L16 42.0667Z" fill="#EF400F"/>
</svg>
