<svg width="42" height="51" viewBox="0 0 42 51" fill="none" xmlns="http://www.w3.org/2000/svg">
<mask id="mask0_4256_3956" style="mask-type:alpha" maskUnits="userSpaceOnUse" x="-9" y="-5" width="60" height="60">
<rect x="-9" y="-5" width="60" height="60" fill="#D9D9D9"/>
</mask>
<g mask="url(#mask0_4256_3956)">
<path d="M21 51L2.1 37.8857C1.44375 37.4405 0.929688 36.8738 0.557813 36.1857C0.185938 35.4976 0 34.769 0 34V4.85714C0 3.52143 0.514063 2.37798 1.54219 1.42679C2.57031 0.475595 3.80625 0 5.25 0H36.75C38.1937 0 39.4297 0.475595 40.4578 1.42679C41.4859 2.37798 42 3.52143 42 4.85714V34C42 34.769 41.8141 35.4976 41.4422 36.1857C41.0703 36.8738 40.5562 37.4405 39.9 37.8857L21 51ZM21 44.9286L36.75 34V4.85714H5.25V34L21 44.9286ZM18.2438 31.5714L33.075 17.85L29.4 14.3286L18.2438 24.65L12.7312 19.55L8.925 22.95L18.2438 31.5714Z" fill="#1E1E1E"/>
</g>
</svg>
