<svg width="60" height="60" viewBox="0 0 60 60" fill="none" xmlns="http://www.w3.org/2000/svg">
<path d="M30.5 54C28.5727 52.4735 26.4848 51.2885 24.2364 50.4449C21.9879 49.6013 19.6591 49.1795 17.25 49.1795C15.5636 49.1795 13.9074 49.4004 12.2812 49.8423C10.6551 50.2842 9.09924 50.9068 7.61364 51.7103C6.77045 52.1521 5.95739 52.132 5.17443 51.65C4.39148 51.1679 4 50.465 4 49.541V20.4974C4 20.0556 4.11042 19.6338 4.33125 19.2321C4.55208 18.8303 4.88333 18.5291 5.325 18.3282C7.17197 17.3641 9.09924 16.641 11.1068 16.159C13.1144 15.6769 15.1621 15.4359 17.25 15.4359C19.5788 15.4359 21.8574 15.7372 24.0858 16.3397C26.3142 16.9423 28.4523 17.8462 30.5 19.0513V48.2154C32.5477 46.9299 34.6958 45.9658 36.9443 45.3231C39.1928 44.6803 41.4614 44.359 43.75 44.359C45.1955 44.359 46.6108 44.4795 47.996 44.7205C49.3813 44.9615 50.7765 45.3231 52.1818 45.8051V16.8821C52.7841 17.0829 53.3763 17.2938 53.9585 17.5147C54.5407 17.7357 55.1129 18.0068 55.675 18.3282C56.1167 18.5291 56.4479 18.8303 56.6688 19.2321C56.8896 19.6338 57 20.0556 57 20.4974V49.541C57 50.465 56.6085 51.1679 55.8256 51.65C55.0426 52.132 54.2295 52.1521 53.3864 51.7103C51.9008 50.9068 50.3449 50.2842 48.7188 49.8423C47.0926 49.4004 45.4364 49.1795 43.75 49.1795C41.3409 49.1795 39.0121 49.6013 36.7636 50.4449C34.5152 51.2885 32.4273 52.4735 30.5 54ZM35.3182 41.9487V19.0513L47.3636 7V31.1026L35.3182 41.9487ZM25.6818 45.8654V22.0038C24.3568 21.4415 22.9816 21.0096 21.5562 20.7083C20.1309 20.4071 18.6955 20.2564 17.25 20.2564C15.7644 20.2564 14.3189 20.397 12.9136 20.6782C11.5083 20.9594 10.1432 21.3812 8.81818 21.9436V45.8654C10.2235 45.3432 11.6188 44.9615 13.004 44.7205C14.3892 44.4795 15.8045 44.359 17.25 44.359C18.6955 44.359 20.1108 44.4795 21.496 44.7205C22.8813 44.9615 24.2765 45.3432 25.6818 45.8654Z" fill="#EF400F"/>
</svg>
