<svg width="60" height="60" viewBox="0 0 60 60" fill="none" xmlns="http://www.w3.org/2000/svg">
<path d="M5 43V39.7188C5 38.2257 5.76389 37.0104 7.29167 36.0729C8.81944 35.1354 10.8333 34.6667 13.3333 34.6667C13.7847 34.6667 14.2188 34.6753 14.6354 34.6927C15.0521 34.7101 15.4514 34.7535 15.8333 34.8229C15.3472 35.5521 14.9826 36.316 14.7396 37.1146C14.4965 37.9132 14.375 38.7465 14.375 39.6146V43H5ZM17.5 43V39.6146C17.5 38.5035 17.8038 37.4878 18.4115 36.5677C19.0191 35.6476 19.8785 34.8403 20.9896 34.1458C22.1007 33.4514 23.4288 32.9306 24.974 32.5833C26.5191 32.2361 28.1944 32.0625 30 32.0625C31.8403 32.0625 33.533 32.2361 35.0781 32.5833C36.6233 32.9306 37.9514 33.4514 39.0625 34.1458C40.1736 34.8403 41.0243 35.6476 41.6146 36.5677C42.2049 37.4878 42.5 38.5035 42.5 39.6146V43H17.5ZM45.625 43V39.6146C45.625 38.7118 45.5121 37.8611 45.2865 37.0625C45.0608 36.2639 44.7222 35.5174 44.2708 34.8229C44.6528 34.7535 45.0434 34.7101 45.4427 34.6927C45.842 34.6753 46.25 34.6667 46.6667 34.6667C49.1667 34.6667 51.1806 35.1267 52.7083 36.0469C54.2361 36.967 55 38.191 55 39.7188V43H45.625ZM21.9271 38.8333H38.125C37.7778 38.1389 36.8142 37.5312 35.2344 37.0104C33.6545 36.4896 31.9097 36.2292 30 36.2292C28.0903 36.2292 26.3455 36.4896 24.7656 37.0104C23.1858 37.5312 22.2396 38.1389 21.9271 38.8333ZM13.3333 32.5833C12.1875 32.5833 11.2066 32.1753 10.3906 31.3594C9.57465 30.5434 9.16667 29.5625 9.16667 28.4167C9.16667 27.2361 9.57465 26.2465 10.3906 25.4479C11.2066 24.6493 12.1875 24.25 13.3333 24.25C14.5139 24.25 15.5035 24.6493 16.3021 25.4479C17.1007 26.2465 17.5 27.2361 17.5 28.4167C17.5 29.5625 17.1007 30.5434 16.3021 31.3594C15.5035 32.1753 14.5139 32.5833 13.3333 32.5833ZM46.6667 32.5833C45.5208 32.5833 44.5399 32.1753 43.724 31.3594C42.908 30.5434 42.5 29.5625 42.5 28.4167C42.5 27.2361 42.908 26.2465 43.724 25.4479C44.5399 24.6493 45.5208 24.25 46.6667 24.25C47.8472 24.25 48.8368 24.6493 49.6354 25.4479C50.434 26.2465 50.8333 27.2361 50.8333 28.4167C50.8333 29.5625 50.434 30.5434 49.6354 31.3594C48.8368 32.1753 47.8472 32.5833 46.6667 32.5833ZM30 30.5C28.2639 30.5 26.7882 29.8924 25.5729 28.6771C24.3576 27.4618 23.75 25.9861 23.75 24.25C23.75 22.4792 24.3576 20.9948 25.5729 19.7969C26.7882 18.599 28.2639 18 30 18C31.7708 18 33.2552 18.599 34.4531 19.7969C35.651 20.9948 36.25 22.4792 36.25 24.25C36.25 25.9861 35.651 27.4618 34.4531 28.6771C33.2552 29.8924 31.7708 30.5 30 30.5ZM30 26.3333C30.5903 26.3333 31.0851 26.1337 31.4844 25.7344C31.8837 25.3351 32.0833 24.8403 32.0833 24.25C32.0833 23.6597 31.8837 23.1649 31.4844 22.7656C31.0851 22.3663 30.5903 22.1667 30 22.1667C29.4097 22.1667 28.9149 22.3663 28.5156 22.7656C28.1163 23.1649 27.9167 23.6597 27.9167 24.25C27.9167 24.8403 28.1163 25.3351 28.5156 25.7344C28.9149 26.1337 29.4097 26.3333 30 26.3333Z" fill="#EF400F"/>
</svg>
