<svg width="60" height="60" viewBox="0 0 60 60" fill="none" xmlns="http://www.w3.org/2000/svg">
<path d="M29.6947 50.9C29.8643 50.9 30.0339 50.8575 30.2035 50.7725C30.3732 50.6875 30.5004 50.6025 30.5852 50.5175L51.4484 29.6075C51.9573 29.0975 52.3283 28.5238 52.5616 27.8863C52.7948 27.2488 52.9114 26.6112 52.9114 25.9738C52.9114 25.2938 52.7948 24.6456 52.5616 24.0294C52.3283 23.4131 51.9573 22.8713 51.4484 22.4037L40.6352 11.5662C40.1687 11.0563 39.628 10.6844 39.0132 10.4506C38.3983 10.2169 37.7516 10.1 37.0732 10.1C36.4371 10.1 35.801 10.2169 35.1649 10.4506C34.5289 10.6844 33.9564 11.0563 33.4475 11.5662L32.7478 12.2675L37.4548 17.0487C38.0909 17.6437 38.5573 18.3237 38.8542 19.0887C39.151 19.8538 39.2994 20.6612 39.2994 21.5112C39.2994 23.2962 38.6951 24.7944 37.4866 26.0056C36.2781 27.2169 34.7833 27.8225 33.0023 27.8225C32.1542 27.8225 31.3379 27.6738 30.5534 27.3763C29.7689 27.0788 29.0798 26.6325 28.4861 26.0375L23.7156 21.32L12.5843 32.4763C12.4571 32.6038 12.3617 32.7419 12.298 32.8906C12.2344 33.0394 12.2026 33.1987 12.2026 33.3687C12.2026 33.7087 12.3298 34.0169 12.5843 34.2931C12.8387 34.5694 13.1355 34.7075 13.4748 34.7075C13.6444 34.7075 13.814 34.665 13.9836 34.58C14.1533 34.495 14.2805 34.41 14.3653 34.325L23.0159 25.655L26.5779 29.225L17.9909 37.895C17.8637 38.0225 17.7683 38.1606 17.7047 38.3094C17.6411 38.4581 17.6093 38.6175 17.6093 38.7875C17.6093 39.1275 17.7365 39.425 17.9909 39.68C18.2453 39.935 18.5422 40.0625 18.8814 40.0625C19.051 40.0625 19.2207 40.02 19.3903 39.935C19.5599 39.85 19.6871 39.765 19.7719 39.68L28.4225 31.0737L31.9846 34.6437L23.3975 43.3138C23.2703 43.3988 23.1749 43.5262 23.1113 43.6963C23.0477 43.8662 23.0159 44.0363 23.0159 44.2062C23.0159 44.5462 23.1431 44.8438 23.3975 45.0988C23.652 45.3537 23.9488 45.4813 24.288 45.4813C24.4577 45.4813 24.6167 45.4494 24.7651 45.3856C24.9135 45.3219 25.0513 45.2262 25.1786 45.0988L33.8292 36.4925L37.3912 40.0625L28.7406 48.7325C28.6134 48.86 28.5179 48.9981 28.4543 49.1469C28.3907 49.2956 28.3589 49.455 28.3589 49.625C28.3589 49.965 28.4967 50.2625 28.7724 50.5175C29.048 50.7725 29.3554 50.9 29.6947 50.9ZM29.6311 56C28.0621 56 26.6733 55.4794 25.4648 54.4381C24.2562 53.3969 23.546 52.09 23.3339 50.5175C21.8922 50.305 20.6836 49.71 19.7083 48.7325C18.733 47.755 18.1393 46.5438 17.9273 45.0988C16.4855 44.8862 15.2876 44.2806 14.3335 43.2819C13.3794 42.2831 12.7963 41.0825 12.5843 39.68C10.9729 39.4675 9.65834 38.7663 8.64062 37.5763C7.6229 36.3863 7.11404 34.9837 7.11404 33.3687C7.11404 32.5187 7.27306 31.7006 7.59109 30.9144C7.90913 30.1281 8.36499 29.4375 8.95866 28.8425L23.7156 14.1163L32.0482 22.4675C32.133 22.595 32.2602 22.6906 32.4298 22.7544C32.5994 22.8181 32.769 22.85 32.9387 22.85C33.3203 22.85 33.6383 22.7331 33.8928 22.4994C34.1472 22.2656 34.2744 21.9575 34.2744 21.575C34.2744 21.405 34.2426 21.235 34.179 21.065C34.1154 20.895 34.02 20.7675 33.8928 20.6825L24.7969 11.5662C24.3305 11.0563 23.7898 10.6844 23.1749 10.4506C22.56 10.2169 21.9134 10.1 21.2349 10.1C20.5988 10.1 19.9627 10.2169 19.3267 10.4506C18.6906 10.6844 18.1181 11.0563 17.6093 11.5662L8.64062 20.6187C8.25897 21.0012 7.94094 21.4475 7.68651 21.9575C7.43208 22.4675 7.26246 22.9775 7.17765 23.4875C7.09284 23.9975 7.09284 24.5181 7.17765 25.0494C7.26246 25.5806 7.43208 26.08 7.68651 26.5475L3.99727 30.245C3.27639 29.2675 2.74633 28.1944 2.40709 27.0256C2.06785 25.8569 1.94063 24.6775 2.02544 23.4875C2.11025 22.2975 2.40709 21.1394 2.91595 20.0131C3.42481 18.8869 4.12449 17.8775 5.01499 16.985L13.9836 7.99625C15.0014 7.01875 16.1357 6.275 17.3866 5.765C18.6376 5.255 19.9203 5 21.2349 5C22.5494 5 23.8322 5.255 25.0831 5.765C26.3341 6.275 27.4472 7.01875 28.4225 7.99625L29.1222 8.6975L29.8219 7.99625C30.8396 7.01875 31.9739 6.275 33.2249 5.765C34.4758 5.255 35.7586 5 37.0732 5C38.3877 5 39.6705 5.255 40.9214 5.765C42.1723 6.275 43.2855 7.01875 44.2608 7.99625L55.0104 18.77C55.9858 19.7475 56.7279 20.8737 57.2367 22.1488C57.7456 23.4237 58 24.72 58 26.0375C58 27.355 57.7456 28.6406 57.2367 29.8944C56.7279 31.1481 55.9858 32.2637 55.0104 33.2412L34.1472 54.0875C33.5535 54.6825 32.8645 55.15 32.08 55.49C31.2955 55.83 30.4792 56 29.6311 56Z" fill="#EF400F"/>
</svg>
