<svg width="56" height="57" viewBox="0 0 56 57" fill="none" xmlns="http://www.w3.org/2000/svg">
<mask id="mask0_4256_4024" style="mask-type:alpha" maskUnits="userSpaceOnUse" x="-5" y="-2" width="61" height="61">
<rect x="-4.74576" y="-1.89831" width="60.7458" height="60.7458" fill="#D9D9D9"/>
</mask>
<g mask="url(#mask0_4256_4024)">
<path d="M53.0313 56.9492L44.7757 48.7038V54.9227H39.1788V39.1307H54.9902V44.7208H48.6936L56.9492 52.9662L53.0313 56.9492ZM27.9848 55.901C24.1136 55.901 20.4756 55.1673 17.0708 53.6999C13.6659 52.2325 10.7042 50.241 8.18557 47.7255C5.66693 45.2099 3.67301 42.2518 2.20381 38.8512C0.734602 35.4506 0 31.817 0 27.9505C0 24.084 0.734602 20.4505 2.20381 17.0498C3.67301 13.6492 5.66693 10.6911 8.18557 8.17552C10.7042 5.65998 13.6659 3.6685 17.0708 2.2011C20.4756 0.733701 24.1136 0 27.9848 0C31.8561 0 35.4941 0.733701 38.8989 2.2011C42.3038 3.6685 45.2655 5.65998 47.7841 8.17552C50.3028 10.6911 52.2967 13.6492 53.7659 17.0498C55.2351 20.4505 55.9697 24.084 55.9697 27.9505C55.9697 28.8822 55.923 29.8139 55.8298 30.7456C55.7365 31.6772 55.5966 32.6089 55.41 33.5406H49.6731C49.9063 32.6089 50.0812 31.6772 50.1978 30.7456C50.3144 29.8139 50.3727 28.8822 50.3727 27.9505C50.3727 27.0188 50.3144 26.0871 50.1978 25.1555C50.0812 24.2238 49.9063 23.2921 49.6731 22.3604H40.1582C40.2982 23.2921 40.4031 24.2238 40.4731 25.1555C40.543 26.0871 40.578 27.0188 40.578 27.9505C40.578 28.8822 40.543 29.8139 40.4731 30.7456C40.4031 31.6772 40.2982 32.6089 40.1582 33.5406H34.5613C34.7012 32.6089 34.8061 31.6772 34.8761 30.7456C34.9461 29.8139 34.9811 28.8822 34.9811 27.9505C34.9811 27.0188 34.9461 26.0871 34.8761 25.1555C34.8061 24.2238 34.7012 23.2921 34.5613 22.3604H21.4084C21.2685 23.2921 21.1635 24.2238 21.0936 25.1555C21.0236 26.0871 20.9886 27.0188 20.9886 27.9505C20.9886 28.8822 21.0236 29.8139 21.0936 30.7456C21.1635 31.6772 21.2685 32.6089 21.4084 33.5406H30.7833V39.1307H22.6677C23.2274 41.1338 23.9504 43.0554 24.8365 44.8955C25.7227 46.7356 26.7722 48.4941 27.9848 50.1712C28.9177 50.1712 29.8505 50.1129 30.7833 49.9965C31.7162 49.88 32.649 49.7752 33.5818 49.682V55.4119C32.649 55.505 31.7162 55.6099 30.7833 55.7263C29.8505 55.8428 28.9177 55.901 27.9848 55.901ZM6.29659 33.5406H15.8114C15.6715 32.6089 15.5666 31.6772 15.4966 30.7456C15.4266 29.8139 15.3917 28.8822 15.3917 27.9505C15.3917 27.0188 15.4266 26.0871 15.4966 25.1555C15.5666 24.2238 15.6715 23.2921 15.8114 22.3604H6.29659C6.06338 23.2921 5.88848 24.2238 5.77187 25.1555C5.65527 26.0871 5.59697 27.0188 5.59697 27.9505C5.59697 28.8822 5.65527 29.8139 5.77187 30.7456C5.88848 31.6772 6.06338 32.6089 6.29659 33.5406ZM8.6753 16.7703H16.9308C17.3506 15.0467 17.8753 13.358 18.505 11.7043C19.1346 10.0505 19.8692 8.43174 20.7088 6.84787C18.1435 7.68639 15.8348 8.95581 13.7825 10.6561C11.7303 12.3565 10.0279 14.3945 8.6753 16.7703ZM20.7088 49.0531C19.8692 47.4693 19.1346 45.8505 18.505 44.1967C17.8753 42.543 17.3506 40.8543 16.9308 39.1307H8.6753C10.0279 41.5065 11.7303 43.5446 13.7825 45.2449C15.8348 46.9452 18.1435 48.2146 20.7088 49.0531ZM22.6677 16.7703H33.302C32.7423 14.7672 32.0193 12.8456 31.1331 11.0055C30.2469 9.16544 29.1975 7.40688 27.9848 5.72985C26.7722 7.40688 25.7227 9.16544 24.8365 11.0055C23.9504 12.8456 23.2274 14.7672 22.6677 16.7703ZM39.0389 16.7703H47.2944C45.9418 14.3945 44.2394 12.3565 42.1871 10.6561C40.1349 8.95581 37.8262 7.68639 35.2609 6.84787C36.1004 8.43174 36.835 10.0505 37.4647 11.7043C38.0944 13.358 38.6191 15.0467 39.0389 16.7703Z" fill="#1C1B1F"/>
</g>
</svg>
