<svg width="60" height="60" viewBox="0 0 60 60" fill="none" xmlns="http://www.w3.org/2000/svg">
<path d="M11.3333 54C9.86667 54 8.61111 53.4778 7.56667 52.4333C6.52222 51.3889 6 50.1333 6 48.6667V11.3333C6 9.86667 6.52222 8.61111 7.56667 7.56667C8.61111 6.52222 9.86667 6 11.3333 6H48.6667C50.1333 6 51.3889 6.52222 52.4333 7.56667C53.4778 8.61111 54 9.86667 54 11.3333V48.6667C54 50.1333 53.4778 51.3889 52.4333 52.4333C51.3889 53.4778 50.1333 54 48.6667 54H11.3333ZM11.3333 48.6667H48.6667V19.3333H11.3333V48.6667Z" fill="#1E1E1E"/>
</svg>
