<svg width="60" height="60" viewBox="0 0 60 60" fill="none" xmlns="http://www.w3.org/2000/svg">
<path d="M22.8 44.4H36C36.68 44.4 37.31 44.23 37.89 43.89C38.47 43.55 38.88 43.08 39.12 42.48L44.16 30.72C44.24 30.52 44.3 30.32 44.34 30.12C44.38 29.92 44.4 29.72 44.4 29.52V27.6C44.4 26.92 44.17 26.35 43.71 25.89C43.25 25.43 42.68 25.2 42 25.2H30.96L32.4 17.04C32.48 16.64 32.46 16.26 32.34 15.9C32.22 15.54 32.02 15.22 31.74 14.94L30 13.2L18.96 25.2C18.64 25.52 18.4 25.88 18.24 26.28C18.08 26.68 18 27.12 18 27.6V39.6C18 40.92 18.47 42.05 19.41 42.99C20.35 43.93 21.48 44.4 22.8 44.4ZM30 54C26.68 54 23.56 53.37 20.64 52.11C17.72 50.85 15.18 49.14 13.02 46.98C10.86 44.82 9.15 42.28 7.89 39.36C6.63 36.44 6 33.32 6 30C6 26.68 6.63 23.56 7.89 20.64C9.15 17.72 10.86 15.18 13.02 13.02C15.18 10.86 17.72 9.15 20.64 7.89C23.56 6.63 26.68 6 30 6C33.32 6 36.44 6.63 39.36 7.89C42.28 9.15 44.82 10.86 46.98 13.02C49.14 15.18 50.85 17.72 52.11 20.64C53.37 23.56 54 26.68 54 30C54 33.32 53.37 36.44 52.11 39.36C50.85 42.28 49.14 44.82 46.98 46.98C44.82 49.14 42.28 50.85 39.36 52.11C36.44 53.37 33.32 54 30 54ZM30 49.2C35.36 49.2 39.9 47.34 43.62 43.62C47.34 39.9 49.2 35.36 49.2 30C49.2 24.64 47.34 20.1 43.62 16.38C39.9 12.66 35.36 10.8 30 10.8C24.64 10.8 20.1 12.66 16.38 16.38C12.66 20.1 10.8 24.64 10.8 30C10.8 35.36 12.66 39.9 16.38 43.62C20.1 47.34 24.64 49.2 30 49.2Z" fill="#1E1E1E"/>
</svg>
