<svg width="60" height="60" viewBox="0 0 60 60" fill="none" xmlns="http://www.w3.org/2000/svg">
<path d="M8.33333 7.33333V23.4V23.3333V50V7.33333ZM13.6667 34H23C23.4 32.9778 23.8889 32.0222 24.4667 31.1333C25.0444 30.2444 25.7111 29.4222 26.4667 28.6667H13.6667V34ZM13.6667 44.6667H22.1333C21.9111 43.7778 21.7667 42.8889 21.7 42C21.6333 41.1111 21.6444 40.2222 21.7333 39.3333H13.6667V44.6667ZM8.33333 55.3333C6.86667 55.3333 5.61111 54.8111 4.56667 53.7667C3.52222 52.7222 3 51.4667 3 50V7.33333C3 5.86667 3.52222 4.61111 4.56667 3.56667C5.61111 2.52222 6.86667 2 8.33333 2H29.6667L45.6667 18V24.6667C44.8222 24.3111 43.9556 24.0333 43.0667 23.8333C42.1778 23.6333 41.2667 23.4889 40.3333 23.4V20.6667H27V7.33333H8.33333V50H24.4C25.1111 51.0667 25.9111 52.0556 26.8 52.9667C27.6889 53.8778 28.6667 54.6667 29.7333 55.3333H8.33333ZM39 47.3333C40.8667 47.3333 42.4444 46.6889 43.7333 45.4C45.0222 44.1111 45.6667 42.5333 45.6667 40.6667C45.6667 38.8 45.0222 37.2222 43.7333 35.9333C42.4444 34.6444 40.8667 34 39 34C37.1333 34 35.5556 34.6444 34.2667 35.9333C32.9778 37.2222 32.3333 38.8 32.3333 40.6667C32.3333 42.5333 32.9778 44.1111 34.2667 45.4C35.5556 46.6889 37.1333 47.3333 39 47.3333ZM52.6 58L45.4 50.8C44.4667 51.4222 43.4556 51.8889 42.3667 52.2C41.2778 52.5111 40.1556 52.6667 39 52.6667C35.6667 52.6667 32.8333 51.5 30.5 49.1667C28.1667 46.8333 27 44 27 40.6667C27 37.3333 28.1667 34.5 30.5 32.1667C32.8333 29.8333 35.6667 28.6667 39 28.6667C42.3333 28.6667 45.1667 29.8333 47.5 32.1667C49.8333 34.5 51 37.3333 51 40.6667C51 41.8222 50.8444 42.9444 50.5333 44.0333C50.2222 45.1222 49.7556 46.1333 49.1333 47.0667L56.3333 54.2667L52.6 58Z" fill="#1E1E1E"/>
</svg>
