<svg width="60" height="60" viewBox="0 0 60 60" fill="none" xmlns="http://www.w3.org/2000/svg">
<path d="M29.9998 11.4053C35.1909 11.4053 39.5879 13.2067 43.1907 16.8095C46.7935 20.4122 48.5949 24.8092 48.5949 30.0003C48.5949 35.1914 46.7935 39.5884 43.1907 43.1912C39.5879 46.794 35.1909 48.5953 29.9998 48.5953C24.8087 48.5953 20.4118 46.794 16.809 43.1912C13.2062 39.5884 11.4048 35.1914 11.4048 30.0003C11.4048 24.8092 13.2062 20.4122 16.809 16.8095C20.4118 13.2067 24.8087 11.4053 29.9998 11.4053ZM29.9998 43.9466C33.8738 43.9466 37.1667 42.5907 39.8784 39.8789C42.5902 37.1671 43.9461 33.8743 43.9461 30.0003C43.9461 26.1263 42.5902 22.8335 39.8784 20.1217C37.1667 17.4099 33.8738 16.054 29.9998 16.054C26.1259 16.054 22.833 17.4099 20.1212 20.1217C17.4094 22.8335 16.0535 26.1263 16.0535 30.0003C16.0535 33.8743 17.4094 37.1671 20.1212 39.8789C22.833 42.5907 26.1259 43.9466 29.9998 43.9466ZM29.9998 38.1356C31.8593 38.1356 33.5251 37.603 34.9972 36.5376C36.4693 35.4723 37.5153 34.068 38.1352 32.3247H21.8645C22.4843 34.068 23.5303 35.4723 25.0024 36.5376C26.4745 37.603 28.1403 38.1356 29.9998 38.1356ZM21.8645 25.3515C21.8645 26.0101 22.0872 26.5622 22.5328 27.0077C22.9783 27.4532 23.5303 27.6759 24.1889 27.6759C24.8474 27.6759 25.3995 27.4532 25.845 27.0077C26.2905 26.5622 26.5133 26.0101 26.5133 25.3515C26.5133 24.693 26.2905 24.1409 25.845 23.6954C25.3995 23.2499 24.8474 23.0272 24.1889 23.0272C23.5303 23.0272 22.9783 23.2499 22.5328 23.6954C22.0872 24.1409 21.8645 24.693 21.8645 25.3515ZM33.4864 25.3515C33.4864 26.0101 33.7091 26.5622 34.1547 27.0077C34.6002 27.4532 35.1522 27.6759 35.8108 27.6759C36.4693 27.6759 37.0214 27.4532 37.4669 27.0077C37.9124 26.5622 38.1352 26.0101 38.1352 25.3515C38.1352 24.693 37.9124 24.1409 37.4669 23.6954C37.0214 23.2499 36.4693 23.0272 35.8108 23.0272C35.1522 23.0272 34.6002 23.2499 34.1547 23.6954C33.7091 24.1409 33.4864 24.693 33.4864 25.3515ZM4.43164 16.054V9.08089C4.43164 7.80248 4.88683 6.70808 5.79721 5.7977C6.7076 4.88732 7.80199 4.43213 9.0804 4.43213H16.0535V9.08089H9.0804V16.054H4.43164ZM16.0535 55.5685H9.0804C7.80199 55.5685 6.7076 55.1133 5.79721 54.2029C4.88683 53.2925 4.43164 52.1981 4.43164 50.9197V43.9466H9.0804V50.9197H16.0535V55.5685ZM43.9461 55.5685V50.9197H50.9192V43.9466H55.568V50.9197C55.568 52.1981 55.1128 53.2925 54.2024 54.2029C53.292 55.1133 52.1977 55.5685 50.9192 55.5685H43.9461ZM50.9192 16.054V9.08089H43.9461V4.43213H50.9192C52.1977 4.43213 53.292 4.88732 54.2024 5.7977C55.1128 6.70808 55.568 7.80248 55.568 9.08089V16.054H50.9192Z" fill="#1E1E1E"/>
</svg>
