<svg width="60" height="60" viewBox="0 0 60 60" fill="none" xmlns="http://www.w3.org/2000/svg">
<path d="M28.1083 44.7875L20.0222 36.8L23.325 33.5375L28.1083 38.2625L37.675 28.8125L40.9778 32.075L28.1083 44.7875ZM14.5556 53C13.3028 53 12.2303 52.5594 11.3382 51.6781C10.4461 50.7969 10 49.7375 10 48.5V17C10 15.7625 10.4461 14.7031 11.3382 13.8219C12.2303 12.9406 13.3028 12.5 14.5556 12.5H16.8333V8H21.3889V12.5H39.6111V8H44.1667V12.5H46.4444C47.6972 12.5 48.7697 12.9406 49.6618 13.8219C50.5539 14.7031 51 15.7625 51 17V48.5C51 49.7375 50.5539 50.7969 49.6618 51.6781C48.7697 52.5594 47.6972 53 46.4444 53H14.5556ZM14.5556 48.5H46.4444V26H14.5556V48.5ZM14.5556 21.5H46.4444V17H14.5556V21.5Z" fill="#1E1E1E"/>
</svg>
